<svg width="723" height="644" viewBox="0 0 723 644" fill="none" xmlns="http://www.w3.org/2000/svg">
<line x1="419" y1="-90" x2="419" y2="485" stroke="#5B5B5B" stroke-width="4"/>
<line x1="608" y1="-90" x2="608" y2="401" stroke="#5B5B5B" stroke-width="4"/>
<line x1="95" y1="-90" x2="95" y2="446" stroke="#5B5B5B" stroke-width="4"/>
<line x1="249" y1="-90" x2="249" y2="493" stroke="#5B5B5B" stroke-width="4"/>
<path d="M503 582.874C503 593.325 500.363 603.25 495.09 612.647C489.816 621.956 481.599 629.509 470.437 635.305C459.362 641.102 445.036 644 427.458 644C418.669 644 410.935 643.605 404.255 642.814C397.663 642.024 391.511 640.751 385.798 638.994C380.085 637.15 374.152 634.778 368 631.88V585.509C378.459 590.778 389.006 594.818 399.641 597.629C410.275 600.351 419.899 601.713 428.513 601.713C433.698 601.713 437.917 601.098 441.169 599.868C444.509 598.639 446.97 596.97 448.552 594.862C450.134 592.667 450.925 590.164 450.925 587.353C450.925 584.016 449.738 581.206 447.365 578.922C445.08 576.551 441.389 574.092 436.291 571.545C431.193 568.998 424.47 565.836 416.12 562.06C409.001 558.723 402.541 555.297 396.74 551.784C391.027 548.271 386.105 544.275 381.975 539.796C377.932 535.23 374.812 529.916 372.614 523.856C370.417 517.796 369.318 510.639 369.318 502.383C369.318 490 372.351 479.637 378.415 471.293C384.567 462.862 393.093 456.539 403.991 452.323C414.978 448.108 427.634 446 441.96 446C454.528 446 465.822 447.405 475.842 450.216C485.949 453.026 495.002 456.232 503 459.832L487.048 500.012C478.786 496.236 470.656 493.25 462.658 491.054C454.66 488.77 447.233 487.629 440.378 487.629C435.896 487.629 432.204 488.2 429.304 489.341C426.491 490.395 424.382 491.844 422.976 493.689C421.657 495.533 420.998 497.641 420.998 500.012C420.998 502.998 422.141 505.677 424.426 508.048C426.799 510.419 430.71 513.01 436.159 515.82C441.696 518.543 449.211 522.1 458.703 526.491C468.107 530.707 476.105 535.273 482.697 540.192C489.289 545.022 494.299 550.862 497.727 557.713C501.242 564.475 503 572.862 503 582.874Z" fill="#EA4235"/>
<path d="M73.5739 494.17H146V584.871C137.353 587.864 127.444 590.319 116.272 592.238C105.1 594.079 93.3926 595 81.1494 595C65.0037 595 50.8475 591.854 38.6808 585.562C26.5142 579.269 17.0257 569.716 10.2154 556.901C3.40514 544.009 0 527.741 0 508.097C0 490.448 3.36688 475.216 10.1006 462.401C16.8344 449.51 26.7437 439.572 39.8286 432.589C52.99 425.53 69.0975 422 88.1509 422C98.6342 422 108.582 422.998 117.994 424.993C127.406 426.988 135.593 429.52 142.557 432.589L128.209 468.271C122.164 465.279 115.889 463.053 109.385 461.595C102.881 460.061 95.8795 459.293 88.3805 459.293C78.3564 459.293 70.2835 461.557 64.1619 466.084C58.1169 470.612 53.717 476.674 50.9623 484.271C48.2075 491.791 46.8302 500.117 46.8302 509.248C46.8302 519.684 48.2841 528.509 51.1918 535.722C54.1761 542.858 58.4995 548.306 64.1619 552.067C69.9009 555.75 76.826 557.591 84.9371 557.591C87.6153 557.591 90.8674 557.4 94.6934 557.016C98.5959 556.632 101.542 556.172 103.531 555.635V529.276H73.5739V494.17Z" fill="#4286F5"/>
<path d="M333 546.056C333 567.684 328.892 585.665 320.675 599.999C312.459 614.332 300.869 625.104 285.907 632.313C271.03 639.438 253.516 643 233.364 643H172V457H237.645C258.057 457 275.355 460.435 289.539 467.305C303.723 474.175 314.491 484.226 321.843 497.457C329.281 510.688 333 526.888 333 546.056ZM279.809 547.837C279.809 536.557 278.252 527.227 275.139 519.848C272.111 512.384 267.528 506.829 261.387 503.182C255.246 499.45 247.505 497.584 238.164 497.584H223.245V601.78H234.662C250.23 601.78 261.646 597.369 268.911 588.549C276.176 579.643 279.809 566.073 279.809 547.837Z" fill="#109D58"/>
<path d="M650.242 416.521C642.812 416.521 636.178 418.111 630.341 421.291C624.503 424.366 619.515 428.871 615.375 434.808C611.236 440.744 608.052 448.006 605.823 456.593C603.7 465.074 602.639 474.721 602.639 485.534C602.639 500.163 604.496 512.46 608.211 522.425C611.926 532.39 617.551 539.917 625.087 545.005C632.729 550.094 642.281 552.638 653.744 552.638C664.146 552.638 674.123 551.207 683.676 548.345C693.334 545.482 703.046 542.037 712.811 538.009V591.12C702.515 595.678 691.954 598.965 681.128 600.979C670.408 602.993 658.998 604 646.898 604C621.637 604 600.94 599.018 584.807 589.053C568.78 578.982 556.946 565.041 549.304 547.232C541.768 529.422 538 508.75 538 485.216C538 467.618 540.441 451.504 545.324 436.875C550.312 422.246 557.583 409.577 567.135 398.87C576.688 388.057 588.469 379.735 602.479 373.905C616.596 367.968 632.729 365 650.879 365C662.129 365 673.964 366.325 686.382 368.975C698.906 371.52 711.112 375.654 723 381.379L703.736 430.832C695.245 426.804 686.647 423.412 677.944 420.655C669.241 417.899 660.007 416.521 650.242 416.521Z" fill="#FABD03"/>
<ellipse cx="96" cy="434" rx="5" ry="6" fill="#5B5B5B"/>
<ellipse cx="248" cy="469" rx="5" ry="6" fill="#5B5B5B"/>
<ellipse cx="420" cy="460" rx="5" ry="6" fill="#5B5B5B"/>
<ellipse cx="608" cy="386" rx="5" ry="6" fill="#5B5B5B"/>
</svg>
